# xmcd CD database file generated by OrangeCD 5.1
#
# Track frame offsets:
#	150
#	15845
#	33000
#	49362
#	62050
#	80750
#	93387
#	108812
#	121200
#	136250
#	152025
#	171425
#	187475
#	203675
#	215550
#	229850
#	243380
#	262700
#	276225
#	293362
#
# Disc length: 4086 seconds
#
# Revision: 1
# Processed by: cddbd v1.4PL0 Copyright (c) Steve Scherf et al.
# Submitted via: OrangeCD 5.1
#
DISCID=140ff414
DTITLE=Kenny Rogers - The Kenny Rogers Collection
DYEAR=1986
DGENRE=Country
TTITLE0=The Gambler
TTITLE1=Lady
TTITLE2=Don't Fall In Love With A Dreamer
TTITLE3=Ruby Don't Take Your Love To Town
TTITLE4=She Believes In Me
TTITLE5=Laura (What's He Got That I Ain't Got)
TTITLE6=I Wasn't Man Enough
TTITLE7=Mother Country Music
TTITLE8=Why Don't We Go Somewhere And Love
TTITLE9=Green Green Grass Of Home
TTITLE10=Coward Of The County
TTITLE11=Lucille
TTITLE12=You Decorated My Life
TTITLE13=Reuben James
TTITLE14=Love The World Away
TTITLE15=Every Time Two Fools Collide
TTITLE16=Long Arm Of The Law
TTITLE17=The Son Of Hickory Holler's Tramp
TTITLE18=Lay Down Beside Me
TTITLE19=Puttin' In Overtime At Home
EXTD=
EXTT0=
EXTT1=
EXTT2=
EXTT3=
EXTT4=
EXTT5=
EXTT6=
EXTT7=
EXTT8=
EXTT9=
EXTT10=
EXTT11=
EXTT12=
EXTT13=
EXTT14=
EXTT15=
EXTT16=
EXTT17=
EXTT18=
EXTT19=
PLAYORDER=
